<?xml version="1.0" standalone="no"?>
<!DOCTYPE svg PUBLIC "-//W3C//DTD SVG 20010904//EN"
 "http://www.w3.org/TR/2001/REC-SVG-20010904/DTD/svg10.dtd">
<svg version="1.0" xmlns="http://www.w3.org/2000/svg"
 width="1024.000000pt" height="1024.000000pt" viewBox="0 0 1024.000000 1024.000000"
 preserveAspectRatio="xMidYMid meet">

<g transform="translate(0.000000,1024.000000) scale(0.100000,-0.100000)"
fill="#000000" stroke="none">
<path d="M2550 6634 c-74 -20 -126 -52 -184 -113 -68 -73 -99 -147 -104 -248
-14 -254 178 -445 431 -431 149 8 266 87 334 226 36 72 38 81 37 171 0 126
-24 189 -104 275 -111 118 -258 161 -410 120z"/>
<path d="M4581 6308 c-5 -13 -102 -255 -215 -538 -114 -283 -208 -519 -209
-523 -1 -4 43 -8 97 -8 l100 -1 45 116 46 116 250 -2 249 -3 44 -115 44 -115
99 0 c54 0 99 2 99 6 0 3 -96 248 -214 545 l-213 539 -107 3 c-103 3 -107 2
-115 -20z m213 -453 c48 -120 86 -221 86 -224 0 -3 -84 -5 -186 -3 -170 3
-185 4 -179 20 87 230 180 450 186 439 4 -7 46 -112 93 -232z"/>
<path d="M1749 6197 c-45 -72 -85 -158 -246 -526 -85 -196 -199 -457 -253
-581 -54 -124 -186 -427 -293 -673 -108 -246 -199 -457 -202 -467 -6 -19 0
-20 230 -20 l236 0 -21 28 c-31 42 -42 103 -30 159 28 127 88 270 132 310 53
50 76 53 393 53 183 0 313 -4 340 -11 79 -20 114 -62 187 -221 80 -173 102
-237 96 -283 l-4 -35 473 0 c445 0 473 1 473 18 0 13 -13 20 -50 29 -75 18
-169 67 -227 118 -78 68 -140 170 -366 595 -112 212 -284 536 -381 720 -289
545 -347 650 -403 743 -30 48 -55 87 -56 87 -1 0 -14 -19 -28 -43z m84 -1172
c81 -162 147 -299 147 -305 0 -24 -83 -31 -327 -28 l-252 3 130 290 c71 160
132 300 135 313 4 12 9 22 13 22 3 0 72 -133 154 -295z"/>
<path d="M5553 6035 c-163 -46 -272 -168 -291 -328 -21 -173 38 -321 164 -408
149 -102 383 -95 530 17 33 25 100 111 92 119 -1 1 -34 18 -72 37 l-70 35 -48
-53 c-36 -38 -62 -57 -100 -70 -192 -64 -374 131 -315 337 61 208 324 248 450
69 l15 -21 68 33 c38 18 71 34 73 35 2 1 -6 17 -18 37 -32 52 -96 105 -167
138 -54 25 -79 31 -162 34 -66 3 -113 -1 -149 -11z"/>
<path d="M6477 6034 c-31 -10 -65 -32 -97 -63 l-50 -47 0 53 0 53 -77 0 -78 0
1 -396 1 -395 81 -2 82 -2 0 232 c0 263 8 319 52 369 44 50 83 67 155 68 73 1
105 -18 143 -85 25 -43 25 -47 28 -314 l4 -270 74 0 74 0 0 190 c0 213 12 340
35 384 8 16 32 43 52 58 32 25 45 28 112 28 89 0 126 -20 157 -82 17 -34 19
-68 22 -308 l3 -270 80 2 80 1 -1 275 c-1 301 -5 334 -59 419 -54 86 -160 127
-285 113 -79 -9 -138 -38 -185 -91 l-38 -43 -24 36 c-28 43 -77 79 -128 93
-51 14 -158 11 -214 -6z"/>
<path d="M7850 6039 c-112 -22 -226 -114 -278 -226 -24 -52 -27 -69 -27 -173
0 -109 2 -119 32 -183 81 -170 260 -260 459 -229 100 16 181 53 235 108 23 24
41 45 38 47 -2 2 -29 24 -60 50 l-56 46 -33 -34 c-98 -102 -285 -97 -378 10
-32 35 -40 51 -56 103 l-7 22 320 0 321 0 0 48 c0 26 -7 75 -15 110 -54 229
-251 349 -495 301z m180 -149 c47 -13 106 -63 130 -111 37 -72 47 -69 -210
-69 -259 0 -251 -3 -206 74 54 92 175 137 286 106z"/>
<path d="M4220 4419 l0 -551 263 5 c207 3 272 8 311 21 149 49 226 145 227
280 1 109 -52 190 -157 241 l-47 23 39 20 c84 43 119 106 119 217 0 69 -4 86
-27 126 -33 56 -87 105 -143 130 -66 29 -159 39 -377 39 l-208 0 0 -551z m440
390 c98 -21 154 -101 131 -187 -12 -42 -51 -85 -93 -101 -29 -11 -288 -17
-288 -7 0 3 0 74 0 156 l0 150 100 0 c54 0 122 -5 150 -11z m3 -448 c110 -15
167 -72 167 -169 0 -65 -30 -109 -95 -142 -45 -22 -65 -25 -190 -28 l-140 -4
2 174 c1 95 2 174 3 176 1 6 192 0 253 -7z"/>
<path d="M6929 4966 c-2 -2 -3 -250 -1 -550 l2 -546 80 0 80 0 0 120 0 120 48
50 47 50 129 -170 129 -170 98 0 c55 0 99 3 99 7 0 4 -75 105 -166 226 l-166
218 59 65 c32 35 105 113 162 174 l103 110 -110 0 -110 0 -161 -167 -161 -168
0 318 0 317 -78 0 c-43 0 -81 -2 -83 -4z"/>
<path d="M5412 4680 c-64 -12 -134 -47 -185 -94 l-37 -34 62 -46 62 -46 25 24
c66 61 183 80 252 40 36 -20 75 -87 81 -137 l3 -28 -160 -3 c-181 -3 -225 -14
-293 -72 -57 -49 -82 -105 -82 -188 0 -81 21 -128 80 -178 65 -56 161 -77 267
-59 78 14 140 47 177 93 l26 33 0 -57 0 -58 80 0 80 0 0 269 c0 244 -2 275
-21 336 -26 86 -97 162 -174 189 -62 21 -173 28 -243 16z m232 -457 l38 -6 -6
-50 c-11 -97 -82 -160 -193 -174 -100 -11 -166 34 -166 112 0 51 26 88 78 111
32 14 181 19 249 7z"/>
<path d="M6326 4664 c-33 -10 -64 -31 -97 -64 l-49 -49 0 59 0 60 -82 0 -83 0
2 -397 2 -398 86 -3 85 -3 0 238 c0 131 5 254 10 274 27 96 99 149 203 150
104 1 155 -38 177 -136 6 -27 10 -148 10 -284 l-1 -236 86 -3 87 -3 -4 283
c-5 314 -9 342 -73 429 -51 71 -116 99 -224 98 -48 0 -108 -7 -135 -15z"/>
</g>
</svg>
